<?xml version="1.0" encoding="utf-8"?>
<!-- Generator: Adobe Illustrator 27.0.1, SVG Export Plug-In . SVG Version: 6.00 Build 0)  -->
<svg version="1.1" id="Calque_1" xmlns="http://www.w3.org/2000/svg" xmlns:xlink="http://www.w3.org/1999/xlink" x="0px" y="0px"
	 viewBox="0 0 60 45" style="enable-background:new 0 0 60 45;" xml:space="preserve">
<style type="text/css">
	.st0{fill:#6FC400;}
	.st1{fill:none;stroke:#FFFFFF;stroke-width:1.1401;stroke-linecap:round;stroke-linejoin:round;}
</style>
<g>
	<path class="st0" d="M40.5,32.7l2.4-5.7c0.3-0.6,0.7-1.1,1.4-1.4l5.7-2.4c0.5-0.2,0.9-0.6,1.2-1s0.4-1,0.4-1.5c0-0.5-0.2-1-0.5-1.4
		c-0.3-0.4-0.8-0.7-1.3-0.9l-15.3-4.5c-0.4-0.1-0.9-0.1-1.4,0c-0.4,0.1-0.8,0.3-1.2,0.7s-0.6,0.7-0.7,1.2c-0.1,0.4-0.1,0.9,0,1.4
		l4.5,15.3c0.1,0.5,0.4,1,0.9,1.3s0.9,0.5,1.4,0.5c0.5,0,1-0.1,1.5-0.4C39.9,33.5,40.3,33.1,40.5,32.7L40.5,32.7z"/>
	<path class="st1" d="M40.5,32.7l2.4-5.7c0.3-0.6,0.7-1.1,1.4-1.4l5.7-2.4c0.5-0.2,0.9-0.6,1.2-1s0.4-1,0.4-1.5c0-0.5-0.2-1-0.5-1.4
		c-0.3-0.4-0.8-0.7-1.3-0.9l-15.3-4.5c-0.4-0.1-0.9-0.1-1.4,0c-0.4,0.1-0.8,0.3-1.2,0.7s-0.6,0.7-0.7,1.2c-0.1,0.4-0.1,0.9,0,1.4
		l4.5,15.3c0.1,0.5,0.4,1,0.9,1.3s0.9,0.5,1.4,0.5c0.5,0,1-0.1,1.5-0.4C39.9,33.5,40.3,33.1,40.5,32.7L40.5,32.7z"/>
</g>
<g>
	<path class="st0" d="M9.8,15l5.8,2.2c0.6,0.2,1.1,0.7,1.4,1.3l2.6,5.6c0.2,0.5,0.6,0.9,1,1.1c0.5,0.3,1,0.4,1.5,0.3
		c0.5,0,1-0.3,1.4-0.6c0.4-0.3,0.7-0.8,0.8-1.3l4.1-15.4c0.1-0.4,0.1-0.9,0-1.4c-0.1-0.4-0.4-0.8-0.7-1.2c-0.3-0.3-0.7-0.5-1.2-0.6
		c-0.4-0.1-0.9-0.1-1.3,0.1l-15.2,5c-0.5,0.2-0.9,0.5-1.3,0.9c-0.3,0.4-0.5,0.9-0.5,1.5s0.1,1,0.4,1.5C8.9,14.4,9.3,14.8,9.8,15
		L9.8,15z"/>
	<path class="st1" d="M9.8,15l5.8,2.2c0.6,0.2,1.1,0.7,1.4,1.3l2.6,5.6c0.2,0.5,0.6,0.9,1,1.1c0.5,0.3,1,0.4,1.5,0.3
		c0.5,0,1-0.3,1.4-0.6c0.4-0.3,0.7-0.8,0.8-1.3l4.1-15.4c0.1-0.4,0.1-0.9,0-1.4c-0.1-0.4-0.4-0.8-0.7-1.2c-0.3-0.3-0.7-0.5-1.2-0.6
		c-0.4-0.1-0.9-0.1-1.3,0.1l-15.2,5c-0.5,0.2-0.9,0.5-1.3,0.9c-0.3,0.4-0.5,0.9-0.5,1.5s0.1,1,0.4,1.5C8.9,14.4,9.3,14.8,9.8,15
		L9.8,15z"/>
</g>
</svg>
