<?xml version="1.0" encoding="utf-8"?>
<!-- Generator: Adobe Illustrator 27.0.1, SVG Export Plug-In . SVG Version: 6.00 Build 0)  -->
<svg version="1.1" id="Calque_1" xmlns="http://www.w3.org/2000/svg" xmlns:xlink="http://www.w3.org/1999/xlink" x="0px" y="0px"
	 viewBox="0 0 68 43" style="enable-background:new 0 0 68 43;" xml:space="preserve">
<style type="text/css">
	.st0{fill:#6FC400;}
</style>
<g>
	<path class="st0" d="M6.6,25.5L6.6,25.5c3.6,0,6.6,2.9,6.6,6.6V36c0,3.6-2.9,6.6-6.6,6.6l0,0C2.9,42.5,0,39.6,0,36v-3.9
		C0,28.5,2.9,25.5,6.6,25.5z"/>
	<path class="st0" d="M24.6,17L24.6,17c3.6,0,6.6,2.9,6.6,6.6V36c0,3.6-2.9,6.6-6.6,6.6h0c-3.6,0-6.6-2.9-6.6-6.6V23.6
		C18.1,20,21,17,24.6,17z"/>
	<path class="st0" d="M42.7,8.5L42.7,8.5c3.6,0,6.6,2.9,6.6,6.6V36c0,3.6-2.9,6.6-6.6,6.6h0c-3.6,0-6.6-2.9-6.6-6.6V15.1
		C36.1,11.4,39.1,8.5,42.7,8.5z"/>
	<path class="st0" d="M60.8,0L60.8,0c3.6,0,6.6,2.9,6.6,6.6V36c0,3.6-2.9,6.6-6.6,6.6h0c-3.6,0-6.6-2.9-6.6-6.6V6.6
		C54.2,2.9,57.1,0,60.8,0z"/>
</g>
</svg>
