<?xml version="1.0" encoding="utf-8"?>
<!-- Generator: Adobe Illustrator 27.0.1, SVG Export Plug-In . SVG Version: 6.00 Build 0)  -->
<svg version="1.1" id="Calque_1" xmlns="http://www.w3.org/2000/svg" xmlns:xlink="http://www.w3.org/1999/xlink" x="0px" y="0px"
	 viewBox="0 0 208.5 203.3" style="enable-background:new 0 0 208.5 203.3;" xml:space="preserve">
<style type="text/css">
	.st0{fill:#6FC400;}
	.st1{fill:#020202;}
	.st2{fill:none;stroke:#6EC400;stroke-width:3;stroke-miterlimit:10;}
	.st3{fill:#6EC400;}
	.st4{fill:none;stroke:#6EC400;stroke-miterlimit:10;}
	.st5{fill:url(#compteur_00000083786721079188914930000004637893734665065916_);}
</style>
<g id="fond_noir_contour_vert">
	<path class="st0" d="M184.6,196.2H24c-5.8,0-10.5-4.7-10.5-10.5V25.2c0-5.8,4.7-10.5,10.5-10.5h160.6c5.8,0,10.5,4.7,10.5,10.5
		v160.6C195.1,191.5,190.4,196.2,184.6,196.2z"/>
	<path class="st1" d="M185.6,190.5H23c-2.1,0-3.7-1.7-3.7-3.7V24.2c0-2.1,1.7-3.7,3.7-3.7h162.5c2.1,0,3.7,1.7,3.7,3.7v162.5
		C189.3,188.8,187.6,190.5,185.6,190.5z"/>
</g>
<circle id="grand_cercle" class="st2" cx="105" cy="104.8" r="74.9"/>
<circle id="cercle_plein_1_x2F_2" class="st3" cx="96.1" cy="151" r="4.5"/>
<circle id="cercle_plein_2_x2F_2" class="st3" cx="112.9" cy="151" r="4.5"/>
<circle id="cercle_central" class="st4" cx="108.5" cy="108.2" r="6.5"/>
<polygon id="aiguille" class="st3" points="68.9,82.1 140.2,134.8 75.6,74.7 "/>
<linearGradient id="compteur_00000172433957815387838490000011836274679428375941_" gradientUnits="userSpaceOnUse" x1="46.664" y1="94.7603" x2="164.344" y2="94.7603">
	<stop  offset="0" style="stop-color:#FFFFFF"/>
	<stop  offset="0.9996" style="stop-color:#83CC23"/>
</linearGradient>
<path id="compteur" style="fill:url(#compteur_00000172433957815387838490000011836274679428375941_);" d="M151,144.6l-8.7-7
	c6.3-8.8,10-19.6,10-31.1c0-30.1-25-54.5-55.9-54.5c-21.7,0-40.5,12.1-49.8,29.7c9.5-21.6,31.1-36.6,56.2-36.6
	c33.9,0,61.5,27.5,61.5,61.5C164.3,120.8,159.4,134.1,151,144.6z"/>
</svg>
