<svg width="119" height="30" viewBox="0 0 119 30" fill="none" xmlns="http://www.w3.org/2000/svg">
<circle cx="14.1683" cy="15.1634" r="14.1683" fill="black"/>
<path d="M14.0525 10.726C14.0525 9.7514 15.1859 9.21566 15.939 9.83426L20.4587 13.5469C20.7256 13.7661 20.8802 14.0933 20.8802 14.4386L20.8802 19.9728C20.8802 20.9473 19.7468 21.4831 18.9937 20.8645L14.474 17.1518C14.2071 16.9326 14.0525 16.6054 14.0525 16.2601L14.0525 10.726Z" fill="white"/>
<path d="M10.5637 10.7597C10.5637 9.77946 11.7087 9.24563 12.4596 9.87582L16.9793 13.6692C17.2406 13.8885 17.3914 14.212 17.3914 14.5531L17.3914 19.9728C17.3914 20.9473 16.2581 21.4831 15.505 20.8645L10.9852 17.1518C10.7184 16.9326 10.5637 16.6054 10.5637 16.2601L10.5637 10.7597Z" fill="#B4B4B4"/>
<path d="M6.90613 10.7597C6.90613 9.77946 8.0511 9.24563 8.80197 9.87582L13.3217 13.6692C13.583 13.8885 13.7338 14.212 13.7338 14.5531L13.7338 19.9728C13.7338 20.9473 12.6005 21.4831 11.8474 20.8645L7.32763 17.1518C7.06079 16.9326 6.90613 16.6054 6.90613 16.2601L6.90613 10.7597Z" fill="#6D6D6D"/>
<path d="M46.1577 23.9651C44.3006 23.9651 42.7374 23.555 41.4684 22.7347C40.2148 21.899 39.2784 20.7847 38.6594 19.3918C38.0403 17.9989 37.7308 16.4668 37.7308 14.7953C37.7308 13.1238 38.0403 11.5994 38.6594 10.222C39.2784 8.8291 40.2148 7.72253 41.4684 6.90227C42.7374 6.08202 44.3006 5.67189 46.1577 5.67189C48.2471 5.67189 49.934 6.18261 51.2186 7.20406C52.5186 8.22551 53.3001 9.58745 53.5632 11.2899H50.3364C50.1507 10.3458 49.6786 9.61066 48.9203 9.08446C48.1774 8.55826 47.2411 8.29516 46.1113 8.29516C44.4089 8.29516 43.0934 8.891 42.1648 10.0827C41.2362 11.2589 40.7719 12.8298 40.7719 14.7953C40.7719 16.7608 41.2362 18.3471 42.1648 19.5543C43.0934 20.746 44.4089 21.3419 46.1113 21.3419C47.2566 21.3419 48.2006 21.0633 48.9435 20.5061C49.6864 19.949 50.1507 19.1287 50.3364 18.0454H53.5632C53.2847 19.8716 52.5031 21.3186 51.2186 22.3865C49.934 23.4389 48.2471 23.9651 46.1577 23.9651ZM58.8508 23.6633C57.8448 23.6633 57.0864 23.4312 56.5757 22.9669C56.065 22.5026 55.8096 21.7365 55.8096 20.6686V5.95047H58.549V19.949C58.549 20.4597 58.6341 20.8234 58.8043 21.0401C58.9901 21.2567 59.3151 21.3651 59.7794 21.3651H60.5454V23.6633H58.8508ZM65.4198 23.6633H62.6805V10.6863H65.4198V23.6633ZM64.0502 9.01481C63.5549 9.01481 63.1293 8.86005 62.7733 8.55052C62.4329 8.22551 62.2626 7.82312 62.2626 7.34335C62.2626 6.86358 62.4329 6.46893 62.7733 6.1594C63.1293 5.83439 63.5549 5.67189 64.0502 5.67189C64.5609 5.67189 64.9865 5.83439 65.327 6.1594C65.6674 6.46893 65.8377 6.86358 65.8377 7.34335C65.8377 7.82312 65.6674 8.22551 65.327 8.55052C64.9865 8.86005 64.5609 9.01481 64.0502 9.01481ZM74.3591 23.9187C73.0901 23.9187 71.9603 23.6324 70.9698 23.0597C69.9948 22.4716 69.2364 21.6746 68.6947 20.6686C68.1531 19.6472 67.8822 18.5019 67.8822 17.2328C67.8822 16.0566 68.1221 14.9501 68.6019 13.9131C69.0971 12.8762 69.8245 12.0405 70.7841 11.4059C71.7591 10.7714 72.9276 10.4541 74.2895 10.4541C75.4348 10.4541 76.4949 10.7018 77.4699 11.197C78.4604 11.6768 79.2497 12.4119 79.8378 13.4024C80.4414 14.3929 80.7432 15.6078 80.7432 17.0471V17.7436H70.668C70.7609 18.3471 70.9079 18.8269 71.1091 19.1829C71.4186 19.9103 71.8597 20.4829 72.4323 20.9008C73.0204 21.3186 73.6859 21.5276 74.4288 21.5276C75.2181 21.5276 75.8913 21.3264 76.4485 20.924C77.0211 20.5061 77.4312 19.9877 77.6788 19.3686H80.5111C80.0932 20.7151 79.3658 21.8139 78.3289 22.6651C77.2919 23.5008 75.9687 23.9187 74.3591 23.9187ZM77.8878 15.5846C77.8259 15.1048 77.6866 14.6947 77.4699 14.3542C77.1604 13.8125 76.7348 13.4024 76.1931 13.1238C75.6514 12.8298 75.0478 12.6827 74.3824 12.6827C73.7014 12.6827 73.0978 12.8298 72.5716 13.1238C72.0454 13.4024 71.6198 13.8125 71.2948 14.3542C71.0936 14.6637 70.9388 15.0739 70.8305 15.5846H77.8878ZM83.1974 23.6633V10.6863H85.9368V12.4506C86.4785 11.7077 87.0356 11.1893 87.6082 10.8952C88.1809 10.6012 88.8309 10.4541 89.5583 10.4541C91.5083 10.4541 92.8316 11.1583 93.528 12.5667C93.7911 13.0774 93.9536 13.5959 94.0155 14.1221C94.0774 14.6483 94.1084 15.2983 94.1084 16.0721V23.6633H91.3458V16.0721C91.3458 15.3911 91.2916 14.834 91.1833 14.4006C91.0905 13.9673 90.9279 13.6268 90.6958 13.3792C90.3244 12.9613 89.7363 12.7524 88.9315 12.7524C87.9874 12.7524 87.2832 13.031 86.8189 13.5881C86.5094 13.9441 86.285 14.4161 86.1457 15.0042C86.0064 15.5923 85.9368 16.3971 85.9368 17.4186V23.6633H83.1974ZM100.794 23.6633C99.7884 23.6633 99.0301 23.4312 98.5194 22.9669C98.0086 22.5026 97.7533 21.7365 97.7533 20.6686V12.9613H95.8032V10.6863H97.7533V5.95047H100.493V10.6863H103.139V12.9613H100.493V19.9025C100.493 20.3978 100.57 20.7692 100.725 21.0168C100.88 21.249 101.22 21.3651 101.746 21.3651H103.116V23.6633H100.794ZM111.177 23.9187C109.908 23.9187 108.779 23.6324 107.788 23.0597C106.798 22.4871 106.024 21.6901 105.467 20.6686C104.925 19.6317 104.654 18.4477 104.654 17.1168C104.654 15.8322 104.925 14.687 105.467 13.681C106.024 12.6595 106.798 11.8702 107.788 11.3131C108.779 10.7404 109.908 10.4541 111.177 10.4541C112.446 10.4541 113.576 10.7404 114.567 11.3131C115.557 11.8702 116.331 12.6595 116.888 13.681C117.445 14.687 117.724 15.8322 117.724 17.1168C117.724 18.4323 117.445 19.6085 116.888 20.6454C116.347 21.6669 115.58 22.4716 114.59 23.0597C113.599 23.6324 112.462 23.9187 111.177 23.9187ZM111.177 21.5276C111.889 21.5276 112.532 21.3419 113.104 20.9704C113.677 20.5835 114.118 20.0573 114.427 19.3918C114.752 18.7263 114.915 17.968 114.915 17.1168C114.915 16.312 114.752 15.5846 114.427 14.9346C114.118 14.2691 113.677 13.7506 113.104 13.3792C112.532 13.0078 111.889 12.822 111.177 12.822C110.465 12.822 109.823 13.0078 109.251 13.3792C108.678 13.7351 108.229 14.2459 107.904 14.9114C107.595 15.5614 107.44 16.2965 107.44 17.1168C107.44 17.9835 107.602 18.7495 107.927 19.415C108.252 20.0805 108.693 20.599 109.251 20.9704C109.823 21.3419 110.465 21.5276 111.177 21.5276Z" fill="black"/>
</svg>
