<?xml version="1.0" encoding="utf-8"?>
<!-- Generator: Adobe Illustrator 27.0.1, SVG Export Plug-In . SVG Version: 6.00 Build 0)  -->
<svg version="1.1" id="Calque_1" xmlns="http://www.w3.org/2000/svg" xmlns:xlink="http://www.w3.org/1999/xlink" x="0px" y="0px"
	 viewBox="0 0 1022.1 231.3" style="enable-background:new 0 0 1022.1 231.3;" xml:space="preserve">
<style type="text/css">
	.st0{fill:#6FC400;}
	.st1{fill:#020202;}
	.st2{fill:none;stroke:#6EC400;stroke-width:3;stroke-miterlimit:10;}
	.st3{fill:#6EC400;}
	.st4{fill:none;stroke:#6EC400;stroke-miterlimit:10;}
	.st5{fill:url(#SVGID_1_);}
	.st6{fill:url(#SVGID_00000129203028532027427700000012902731783506765198_);}
	.st7{fill:#FFFFFF;}
	.st8{fill:#1D1D1B;}
</style>
<g>
	<g>
		<g>
			<path class="st0" d="M197.7,212.8H41.1c-7.7,0-13.9-6.2-13.9-13.9V42.3c0-7.7,6.2-13.9,13.9-13.9h156.6c7.7,0,13.9,6.2,13.9,13.9
				v156.6C211.6,206.6,205.4,212.8,197.7,212.8z"/>
			<path class="st1" d="M195.2,205.6H43.7c-5.1,0-9.2-4.1-9.2-9.2V44.9c0-5.1,4.1-9.2,9.2-9.2h151.5c5.1,0,9.2,4.1,9.2,9.2v151.5
				C204.4,201.5,200.3,205.6,195.2,205.6z"/>
		</g>
		<circle class="st2" cx="119.4" cy="120.6" r="74.9"/>
		<g>
			<g>
				<circle class="st3" cx="110.5" cy="166.9" r="4.5"/>
				<circle class="st3" cx="127.3" cy="166.9" r="4.5"/>
			</g>
		</g>
		<g>
			<circle class="st4" cx="122.9" cy="124" r="6.5"/>
			<polygon class="st3" points="83.3,98 154.6,150.6 90.1,90.6 			"/>
		</g>
		<linearGradient id="SVGID_1_" gradientUnits="userSpaceOnUse" x1="56.6619" y1="123.5971" x2="56.6619" y2="123.5971">
			<stop  offset="0" style="stop-color:#FFFFFF"/>
			<stop  offset="0.9996" style="stop-color:#83CC23"/>
		</linearGradient>
		<path class="st5" d="M56.7,123.6"/>
		
			<linearGradient id="SVGID_00000176756149386454376790000002034075648775567032_" gradientUnits="userSpaceOnUse" x1="61.0844" y1="110.619" x2="178.7644" y2="110.619">
			<stop  offset="0" style="stop-color:#FFFFFF"/>
			<stop  offset="0.9996" style="stop-color:#83CC23"/>
		</linearGradient>
		<path style="fill:url(#SVGID_00000176756149386454376790000002034075648775567032_);" d="M165.5,160.4l-8.7-7
			c6.3-8.8,10-19.6,10-31.1c0-30.1-25-54.5-55.9-54.5c-21.7,0-40.5,12.1-49.8,29.7c9.5-21.6,31.1-36.6,56.2-36.6
			c33.9,0,61.5,27.5,61.5,61.5C178.8,136.7,173.8,149.9,165.5,160.4z"/>
	</g>
	<g>
		<g>
			<path class="st7" d="M259.8,201.6h-4.9l-1.9-5h-8.9l-1.8,5h-4.8l8.6-22.2h4.7L259.8,201.6z M251.5,192.8l-3.1-8.2l-3,8.2H251.5z"
				/>
			<path class="st7" d="M272.5,201.6v-2.4c-0.6,0.9-1.4,1.5-2.3,2c-1,0.5-2,0.7-3,0.7c-1.1,0-2-0.2-2.9-0.7c-0.9-0.5-1.5-1.1-1.9-2
				c-0.4-0.9-0.6-2-0.6-3.6v-10.2h4.3v7.4c0,2.3,0.1,3.6,0.2,4.2c0.2,0.5,0.4,0.9,0.9,1.2c0.4,0.3,0.9,0.4,1.6,0.4
				c0.7,0,1.4-0.2,2-0.6s1-0.9,1.2-1.5c0.2-0.6,0.3-2,0.3-4.3v-6.8h4.3v16.1H272.5z"/>
			<path class="st7" d="M288,185.5v3.4H285v6.5c0,1.3,0,2.1,0.1,2.3c0.1,0.2,0.2,0.4,0.4,0.5c0.2,0.1,0.4,0.2,0.7,0.2
				c0.4,0,1-0.1,1.7-0.4l0.4,3.3c-1,0.4-2.1,0.6-3.4,0.6c-0.8,0-1.5-0.1-2.1-0.4c-0.6-0.3-1.1-0.6-1.4-1c-0.3-0.4-0.5-1-0.6-1.7
				c-0.1-0.5-0.1-1.5-0.1-3v-7h-2v-3.4h2v-3.2l4.3-2.5v5.7H288z"/>
			<path class="st7" d="M289.7,193.3c0-1.4,0.3-2.8,1-4.1c0.7-1.3,1.7-2.3,3-3c1.3-0.7,2.7-1,4.3-1c2.4,0,4.4,0.8,6,2.4
				c1.6,1.6,2.3,3.6,2.3,6c0,2.4-0.8,4.4-2.4,6c-1.6,1.6-3.5,2.4-5.9,2.4c-1.5,0-2.9-0.3-4.2-1c-1.3-0.7-2.4-1.6-3.1-2.9
				C290,196.7,289.7,195.1,289.7,193.3z M294,193.5c0,1.6,0.4,2.8,1.1,3.7s1.7,1.3,2.8,1.3c1.1,0,2-0.4,2.8-1.3
				c0.8-0.8,1.1-2.1,1.1-3.7c0-1.6-0.4-2.8-1.1-3.6c-0.8-0.8-1.7-1.3-2.8-1.3c-1.1,0-2,0.4-2.8,1.3S294,191.9,294,193.5z"/>
			<path class="st7" d="M309,185.5h3.9v2.2c1.4-1.7,3.1-2.6,5-2.6c1,0,1.9,0.2,2.7,0.6s1.4,1.1,1.9,1.9c0.7-0.9,1.5-1.5,2.3-1.9
				s1.7-0.6,2.6-0.6c1.2,0,2.2,0.2,3,0.7c0.8,0.5,1.4,1.2,1.8,2.1c0.3,0.7,0.4,1.8,0.4,3.3v10.3h-4.3v-9.2c0-1.6-0.1-2.6-0.4-3.1
				c-0.4-0.6-1-0.9-1.8-0.9c-0.6,0-1.2,0.2-1.7,0.5c-0.5,0.4-0.9,0.9-1.1,1.6c-0.2,0.7-0.3,1.8-0.3,3.3v7.7h-4.3v-8.8
				c0-1.6-0.1-2.6-0.2-3s-0.4-0.8-0.7-1c-0.3-0.2-0.7-0.3-1.3-0.3c-0.7,0-1.2,0.2-1.8,0.5c-0.5,0.4-0.9,0.9-1.1,1.5
				c-0.2,0.7-0.3,1.8-0.3,3.3v7.8H309V185.5z"/>
			<path class="st7" d="M339.8,190.4l-3.9-0.7c0.4-1.6,1.2-2.7,2.2-3.5s2.6-1.1,4.7-1.1c1.9,0,3.3,0.2,4.2,0.7c0.9,0.4,1.6,1,2,1.7
				c0.4,0.7,0.6,2,0.6,3.8l0,5c0,1.4,0.1,2.5,0.2,3.1c0.1,0.7,0.4,1.4,0.8,2.2h-4.2c-0.1-0.3-0.2-0.7-0.4-1.3
				c-0.1-0.3-0.1-0.4-0.2-0.5c-0.7,0.7-1.5,1.2-2.3,1.6c-0.8,0.4-1.7,0.5-2.6,0.5c-1.7,0-3-0.4-3.9-1.3c-1-0.9-1.4-2-1.4-3.4
				c0-0.9,0.2-1.7,0.7-2.4c0.4-0.7,1-1.3,1.8-1.6c0.8-0.4,1.9-0.7,3.4-1c2-0.4,3.4-0.7,4.1-1v-0.4c0-0.8-0.2-1.4-0.6-1.7
				c-0.4-0.3-1.2-0.5-2.3-0.5c-0.8,0-1.3,0.1-1.8,0.4S340.1,189.6,339.8,190.4z M345.5,193.8c-0.5,0.2-1.4,0.4-2.6,0.7
				c-1.2,0.3-2,0.5-2.3,0.7c-0.6,0.4-0.8,0.9-0.8,1.5c0,0.6,0.2,1.1,0.7,1.5c0.4,0.4,1,0.7,1.7,0.7c0.8,0,1.5-0.3,2.2-0.8
				c0.5-0.4,0.9-0.9,1-1.4c0.1-0.4,0.2-1.1,0.2-2.1V193.8z"/>
			<path class="st7" d="M361,185.5v3.4h-2.9v6.5c0,1.3,0,2.1,0.1,2.3c0.1,0.2,0.2,0.4,0.4,0.5c0.2,0.1,0.4,0.2,0.7,0.2
				c0.4,0,1-0.1,1.7-0.4l0.4,3.3c-1,0.4-2.1,0.6-3.4,0.6c-0.8,0-1.5-0.1-2.1-0.4c-0.6-0.3-1.1-0.6-1.4-1c-0.3-0.4-0.5-1-0.6-1.7
				c-0.1-0.5-0.1-1.5-0.1-3v-7h-2v-3.4h2v-3.2l4.3-2.5v5.7H361z"/>
			<path class="st7" d="M363.7,183.3v-3.9h4.3v3.9H363.7z M363.7,201.6v-16.1h4.3v16.1H363.7z"/>
			<path class="st7" d="M370.6,197l4.3-0.7c0.2,0.8,0.5,1.5,1.1,1.9c0.6,0.4,1.3,0.6,2.3,0.6c1.1,0,1.9-0.2,2.5-0.6
				c0.4-0.3,0.6-0.7,0.6-1.1c0-0.3-0.1-0.6-0.3-0.8c-0.2-0.2-0.7-0.4-1.4-0.6c-3.4-0.8-5.6-1.4-6.5-2.1c-1.3-0.9-1.9-2.1-1.9-3.6
				c0-1.4,0.5-2.6,1.6-3.5c1.1-0.9,2.8-1.4,5.1-1.4c2.2,0,3.8,0.4,4.9,1.1c1.1,0.7,1.8,1.8,2.2,3.2l-4,0.7c-0.2-0.6-0.5-1.1-1-1.4
				c-0.5-0.3-1.2-0.5-2.1-0.5c-1.1,0-1.9,0.2-2.4,0.5c-0.3,0.2-0.5,0.5-0.5,0.9c0,0.3,0.1,0.6,0.4,0.8c0.4,0.3,1.7,0.7,4,1.2
				c2.3,0.5,3.8,1.1,4.7,1.9c0.9,0.8,1.3,1.8,1.3,3.2c0,1.5-0.6,2.7-1.8,3.8c-1.2,1.1-3.1,1.6-5.5,1.6c-2.2,0-3.9-0.4-5.2-1.3
				C371.8,199.7,371,198.5,370.6,197z"/>
			<path class="st7" d="M398.4,196.4l4.2,0.7c-0.5,1.6-1.4,2.7-2.6,3.5c-1.2,0.8-2.6,1.2-4.4,1.2c-2.8,0-4.9-0.9-6.2-2.7
				c-1.1-1.5-1.6-3.3-1.6-5.5c0-2.7,0.7-4.8,2.1-6.3c1.4-1.5,3.2-2.3,5.3-2.3c2.4,0,4.3,0.8,5.7,2.4c1.4,1.6,2,4,2,7.3h-10.7
				c0,1.3,0.4,2.2,1,2.9c0.7,0.7,1.5,1.1,2.5,1.1c0.7,0,1.2-0.2,1.7-0.5S398.2,197.2,398.4,196.4z M398.6,192.1c0-1.2-0.3-2.2-1-2.8
				s-1.3-1-2.2-1c-0.9,0-1.7,0.3-2.3,1s-0.9,1.6-0.9,2.8H398.6z"/>
			<path class="st7" d="M404.4,201.6v-3.3l6-6.9c1-1.1,1.7-1.9,2.2-2.4c-0.5,0-1.1,0-2,0.1l-5.7,0v-3.5h13.3v3l-6.1,7.1l-2.2,2.3
				c1.2-0.1,1.9-0.1,2.2-0.1h6.6v3.7H404.4z"/>
			<path class="st7" d="M434.1,201.6l-6.5-16.1h4.5l3,8.2l0.9,2.7c0.2-0.7,0.4-1.2,0.4-1.4c0.1-0.5,0.3-0.9,0.5-1.4l3.1-8.2h4.4
				l-6.4,16.1H434.1z"/>
			<path class="st7" d="M445.7,193.3c0-1.4,0.3-2.8,1-4.1c0.7-1.3,1.7-2.3,3-3c1.3-0.7,2.7-1,4.3-1c2.4,0,4.4,0.8,6,2.4
				c1.6,1.6,2.3,3.6,2.3,6c0,2.4-0.8,4.4-2.4,6c-1.6,1.6-3.5,2.4-5.9,2.4c-1.5,0-2.9-0.3-4.2-1c-1.3-0.7-2.4-1.6-3.1-2.9
				C446.1,196.7,445.7,195.1,445.7,193.3z M450.1,193.5c0,1.6,0.4,2.8,1.1,3.7s1.7,1.3,2.8,1.3c1.1,0,2-0.4,2.8-1.3
				c0.8-0.8,1.1-2.1,1.1-3.7c0-1.6-0.4-2.8-1.1-3.6c-0.8-0.8-1.7-1.3-2.8-1.3c-1.1,0-2,0.4-2.8,1.3S450.1,191.9,450.1,193.5z"/>
			<path class="st7" d="M463.9,197l4.3-0.7c0.2,0.8,0.5,1.5,1.1,1.9c0.6,0.4,1.3,0.6,2.3,0.6c1.1,0,1.9-0.2,2.5-0.6
				c0.4-0.3,0.6-0.7,0.6-1.1c0-0.3-0.1-0.6-0.3-0.8c-0.2-0.2-0.7-0.4-1.4-0.6c-3.4-0.8-5.6-1.4-6.5-2.1c-1.3-0.9-1.9-2.1-1.9-3.6
				c0-1.4,0.5-2.6,1.6-3.5c1.1-0.9,2.8-1.4,5.1-1.4c2.2,0,3.8,0.4,4.9,1.1c1.1,0.7,1.8,1.8,2.2,3.2l-4,0.7c-0.2-0.6-0.5-1.1-1-1.4
				c-0.5-0.3-1.2-0.5-2.1-0.5c-1.1,0-1.9,0.2-2.4,0.5c-0.3,0.2-0.5,0.5-0.5,0.9c0,0.3,0.1,0.6,0.4,0.8c0.4,0.3,1.7,0.7,4,1.2
				c2.3,0.5,3.8,1.1,4.7,1.9c0.9,0.8,1.3,1.8,1.3,3.2c0,1.5-0.6,2.7-1.8,3.8c-1.2,1.1-3.1,1.6-5.5,1.6c-2.2,0-3.9-0.4-5.2-1.3
				C465.1,199.7,464.3,198.5,463.9,197z"/>
			<path class="st7" d="M494.8,201.6h-4.3v-16.1h4v2.3c0.7-1.1,1.3-1.8,1.8-2.1c0.5-0.3,1.2-0.5,1.8-0.5c1,0,1.9,0.3,2.8,0.8
				l-1.3,3.7c-0.7-0.5-1.4-0.7-2-0.7c-0.6,0-1.1,0.2-1.5,0.5c-0.4,0.3-0.7,0.9-1,1.8c-0.2,0.9-0.4,2.7-0.4,5.4V201.6z"/>
			<path class="st7" d="M505.7,190.4l-3.9-0.7c0.4-1.6,1.2-2.7,2.2-3.5s2.6-1.1,4.7-1.1c1.9,0,3.3,0.2,4.2,0.7c0.9,0.4,1.6,1,2,1.7
				c0.4,0.7,0.6,2,0.6,3.8l0,5c0,1.4,0.1,2.5,0.2,3.1c0.1,0.7,0.4,1.4,0.8,2.2h-4.2c-0.1-0.3-0.2-0.7-0.4-1.3
				c-0.1-0.3-0.1-0.4-0.2-0.5c-0.7,0.7-1.5,1.2-2.3,1.6c-0.8,0.4-1.7,0.5-2.6,0.5c-1.7,0-3-0.4-3.9-1.3c-1-0.9-1.4-2-1.4-3.4
				c0-0.9,0.2-1.7,0.7-2.4c0.4-0.7,1-1.3,1.8-1.6c0.8-0.4,1.9-0.7,3.4-1c2-0.4,3.4-0.7,4.1-1v-0.4c0-0.8-0.2-1.4-0.6-1.7
				c-0.4-0.3-1.2-0.5-2.3-0.5c-0.8,0-1.3,0.1-1.8,0.4S506,189.6,505.7,190.4z M511.4,193.8c-0.5,0.2-1.4,0.4-2.6,0.7
				c-1.2,0.3-2,0.5-2.3,0.7c-0.6,0.4-0.8,0.9-0.8,1.5c0,0.6,0.2,1.1,0.7,1.5c0.4,0.4,1,0.7,1.7,0.7c0.8,0,1.5-0.3,2.2-0.8
				c0.5-0.4,0.9-0.9,1-1.4c0.1-0.4,0.2-1.1,0.2-2.1V193.8z"/>
			<path class="st7" d="M519.4,185.5h4v2.4c0.5-0.8,1.2-1.5,2.1-2c0.9-0.5,1.9-0.8,2.9-0.8c1.9,0,3.5,0.7,4.8,2.2
				c1.3,1.5,2,3.5,2,6.1c0,2.7-0.7,4.8-2,6.3c-1.3,1.5-2.9,2.2-4.8,2.2c-0.9,0-1.7-0.2-2.4-0.5c-0.7-0.4-1.5-1-2.3-1.8v8.1h-4.3
				V185.5z M523.6,193.2c0,1.8,0.4,3.1,1.1,4c0.7,0.9,1.6,1.3,2.6,1.3c1,0,1.8-0.4,2.5-1.2s1-2.1,1-3.9c0-1.7-0.3-2.9-1-3.8
				c-0.7-0.8-1.5-1.2-2.5-1.2c-1,0-1.9,0.4-2.6,1.2C524,190.5,523.6,191.7,523.6,193.2z"/>
			<path class="st7" d="M538.1,185.5h4v2.4c0.5-0.8,1.2-1.5,2.1-2c0.9-0.5,1.9-0.8,2.9-0.8c1.9,0,3.5,0.7,4.8,2.2
				c1.3,1.5,2,3.5,2,6.1c0,2.7-0.7,4.8-2,6.3c-1.3,1.5-2.9,2.2-4.8,2.2c-0.9,0-1.7-0.2-2.4-0.5c-0.7-0.4-1.5-1-2.3-1.8v8.1h-4.3
				V185.5z M542.3,193.2c0,1.8,0.4,3.1,1.1,4c0.7,0.9,1.6,1.3,2.6,1.3c1,0,1.8-0.4,2.5-1.2s1-2.1,1-3.9c0-1.7-0.3-2.9-1-3.8
				c-0.7-0.8-1.5-1.2-2.5-1.2c-1,0-1.9,0.4-2.6,1.2C542.7,190.5,542.3,191.7,542.3,193.2z"/>
			<path class="st7" d="M555.9,193.3c0-1.4,0.3-2.8,1-4.1c0.7-1.3,1.7-2.3,3-3c1.3-0.7,2.7-1,4.3-1c2.4,0,4.4,0.8,6,2.4
				s2.3,3.6,2.3,6c0,2.4-0.8,4.4-2.4,6c-1.6,1.6-3.5,2.4-5.9,2.4c-1.5,0-2.9-0.3-4.2-1c-1.3-0.7-2.4-1.6-3.1-2.9
				C556.3,196.7,555.9,195.1,555.9,193.3z M560.3,193.5c0,1.6,0.4,2.8,1.1,3.7c0.8,0.8,1.7,1.3,2.8,1.3s2-0.4,2.8-1.3
				c0.8-0.8,1.1-2.1,1.1-3.7c0-1.6-0.4-2.8-1.1-3.6c-0.8-0.8-1.7-1.3-2.8-1.3s-2,0.4-2.8,1.3C560.7,190.7,560.3,191.9,560.3,193.5z"
				/>
			<path class="st7" d="M579.7,201.6h-4.3v-16.1h4v2.3c0.7-1.1,1.3-1.8,1.8-2.1c0.5-0.3,1.2-0.5,1.8-0.5c1,0,1.9,0.3,2.8,0.8
				l-1.3,3.7c-0.7-0.5-1.4-0.7-2-0.7c-0.6,0-1.1,0.2-1.5,0.5s-0.7,0.9-1,1.8s-0.4,2.7-0.4,5.4V201.6z"/>
			<path class="st7" d="M594.8,185.5v3.4h-2.9v6.5c0,1.3,0,2.1,0.1,2.3c0.1,0.2,0.2,0.4,0.4,0.5c0.2,0.1,0.4,0.2,0.7,0.2
				c0.4,0,1-0.1,1.7-0.4l0.4,3.3c-1,0.4-2.1,0.6-3.4,0.6c-0.8,0-1.5-0.1-2.1-0.4c-0.6-0.3-1.1-0.6-1.4-1c-0.3-0.4-0.5-1-0.6-1.7
				c-0.1-0.5-0.1-1.5-0.1-3v-7h-2v-3.4h2v-3.2l4.3-2.5v5.7H594.8z"/>
			<path class="st7" d="M596,197l4.3-0.7c0.2,0.8,0.5,1.5,1.1,1.9c0.6,0.4,1.3,0.6,2.3,0.6c1.1,0,1.9-0.2,2.5-0.6
				c0.4-0.3,0.6-0.7,0.6-1.1c0-0.3-0.1-0.6-0.3-0.8c-0.2-0.2-0.7-0.4-1.4-0.6c-3.4-0.8-5.6-1.4-6.5-2.1c-1.3-0.9-1.9-2.1-1.9-3.6
				c0-1.4,0.6-2.6,1.7-3.5s2.8-1.4,5.1-1.4c2.2,0,3.8,0.4,4.9,1.1c1.1,0.7,1.8,1.8,2.2,3.2l-4,0.7c-0.2-0.6-0.5-1.1-1-1.4
				c-0.5-0.3-1.2-0.5-2.1-0.5c-1.1,0-1.9,0.2-2.4,0.5c-0.3,0.2-0.5,0.5-0.5,0.9c0,0.3,0.1,0.6,0.4,0.8c0.4,0.3,1.7,0.7,4,1.2
				c2.3,0.5,3.8,1.1,4.7,1.9c0.9,0.8,1.3,1.8,1.3,3.2c0,1.5-0.6,2.7-1.8,3.8c-1.2,1.1-3.1,1.6-5.5,1.6c-2.2,0-3.9-0.4-5.2-1.3
				S596.4,198.5,596,197z"/>
			<path class="st7" d="M637.6,201.6h-4v-2.4c-0.7,0.9-1.4,1.6-2.3,2.1c-0.9,0.4-1.8,0.7-2.7,0.7c-1.8,0-3.4-0.7-4.7-2.2
				c-1.3-1.5-2-3.6-2-6.2c0-2.7,0.6-4.8,1.9-6.2c1.3-1.4,2.9-2.1,4.9-2.1c1.8,0,3.4,0.7,4.7,2.2v-8h4.3V201.6z M626.2,193.2
				c0,1.7,0.2,3,0.7,3.7c0.7,1.1,1.6,1.7,2.9,1.7c1,0,1.8-0.4,2.5-1.2c0.7-0.8,1-2.1,1-3.7c0-1.8-0.3-3.2-1-4
				c-0.7-0.8-1.5-1.2-2.6-1.2c-1,0-1.9,0.4-2.5,1.2C626.6,190.4,626.2,191.6,626.2,193.2z"/>
			<path class="st7" d="M650.9,196.4l4.2,0.7c-0.5,1.6-1.4,2.7-2.6,3.5c-1.2,0.8-2.6,1.2-4.4,1.2c-2.8,0-4.9-0.9-6.2-2.7
				c-1.1-1.5-1.6-3.3-1.6-5.5c0-2.7,0.7-4.8,2.1-6.3c1.4-1.5,3.2-2.3,5.3-2.3c2.4,0,4.3,0.8,5.7,2.4s2,4,2,7.3h-10.7
				c0,1.3,0.4,2.2,1,2.9c0.7,0.7,1.5,1.1,2.5,1.1c0.7,0,1.2-0.2,1.7-0.5S650.6,197.2,650.9,196.4z M651.1,192.1c0-1.2-0.3-2.2-1-2.8
				s-1.3-1-2.2-1c-0.9,0-1.7,0.3-2.3,1s-0.9,1.6-0.9,2.8H651.1z"/>
			<path class="st7" d="M666.8,185.5h4v2.4c0.5-0.8,1.2-1.5,2.1-2c0.9-0.5,1.9-0.8,2.9-0.8c1.9,0,3.5,0.7,4.8,2.2
				c1.3,1.5,2,3.5,2,6.1c0,2.7-0.7,4.8-2,6.3c-1.3,1.5-2.9,2.2-4.8,2.2c-0.9,0-1.7-0.2-2.4-0.5c-0.7-0.4-1.5-1-2.3-1.8v8.1h-4.3
				V185.5z M671,193.2c0,1.8,0.4,3.1,1.1,4c0.7,0.9,1.6,1.3,2.6,1.3c1,0,1.8-0.4,2.5-1.2s1-2.1,1-3.9c0-1.7-0.3-2.9-1-3.8
				c-0.7-0.8-1.5-1.2-2.5-1.2c-1,0-1.9,0.4-2.6,1.2C671.3,190.5,671,191.7,671,193.2z"/>
			<path class="st7" d="M689.7,201.6h-4.3v-16.1h4v2.3c0.7-1.1,1.3-1.8,1.8-2.1c0.5-0.3,1.2-0.5,1.8-0.5c1,0,1.9,0.3,2.8,0.8
				l-1.3,3.7c-0.7-0.5-1.4-0.7-2-0.7c-0.6,0-1.1,0.2-1.5,0.5s-0.7,0.9-1,1.8s-0.4,2.7-0.4,5.4V201.6z"/>
			<path class="st7" d="M696.4,193.3c0-1.4,0.3-2.8,1-4.1c0.7-1.3,1.7-2.3,3-3c1.3-0.7,2.7-1,4.3-1c2.4,0,4.4,0.8,6,2.4
				s2.3,3.6,2.3,6c0,2.4-0.8,4.4-2.4,6c-1.6,1.6-3.5,2.4-5.9,2.4c-1.5,0-2.9-0.3-4.2-1c-1.3-0.7-2.4-1.6-3.1-2.9
				C696.8,196.7,696.4,195.1,696.4,193.3z M700.8,193.5c0,1.6,0.4,2.8,1.1,3.7c0.8,0.8,1.7,1.3,2.8,1.3s2-0.4,2.8-1.3
				c0.8-0.8,1.1-2.1,1.1-3.7c0-1.6-0.4-2.8-1.1-3.6c-0.8-0.8-1.7-1.3-2.8-1.3s-2,0.4-2.8,1.3C701.2,190.7,700.8,191.9,700.8,193.5z"
				/>
			<path class="st7" d="M730.8,201.6h-4v-2.4c-0.7,0.9-1.4,1.6-2.3,2.1c-0.9,0.4-1.8,0.7-2.7,0.7c-1.8,0-3.4-0.7-4.7-2.2
				c-1.3-1.5-2-3.6-2-6.2c0-2.7,0.6-4.8,1.9-6.2c1.3-1.4,2.9-2.1,4.9-2.1c1.8,0,3.4,0.7,4.7,2.2v-8h4.3V201.6z M719.5,193.2
				c0,1.7,0.2,3,0.7,3.7c0.7,1.1,1.6,1.7,2.9,1.7c1,0,1.8-0.4,2.5-1.2c0.7-0.8,1-2.1,1-3.7c0-1.8-0.3-3.2-1-4
				c-0.7-0.8-1.5-1.2-2.6-1.2c-1,0-1.9,0.4-2.5,1.2C719.8,190.4,719.5,191.6,719.5,193.2z"/>
			<path class="st7" d="M745.4,201.6v-2.4c-0.6,0.9-1.4,1.5-2.3,2c-1,0.5-2,0.7-3,0.7c-1.1,0-2-0.2-2.9-0.7c-0.9-0.5-1.5-1.1-1.9-2
				c-0.4-0.9-0.6-2-0.6-3.6v-10.2h4.3v7.4c0,2.3,0.1,3.6,0.2,4.2s0.4,0.9,0.9,1.2s0.9,0.4,1.6,0.4c0.7,0,1.4-0.2,2-0.6
				c0.6-0.4,1-0.9,1.2-1.5c0.2-0.6,0.3-2,0.3-4.3v-6.8h4.3v16.1H745.4z"/>
			<path class="st7" d="M767.5,190.2l-4.2,0.8c-0.1-0.8-0.5-1.5-1-1.9c-0.5-0.4-1.1-0.6-1.9-0.6c-1.1,0-1.9,0.4-2.5,1.1
				c-0.6,0.7-0.9,2-0.9,3.7c0,1.9,0.3,3.3,1,4s1.5,1.2,2.6,1.2c0.8,0,1.5-0.2,2-0.7c0.5-0.5,0.9-1.2,1.1-2.4l4.2,0.7
				c-0.4,1.9-1.3,3.4-2.5,4.3c-1.2,1-2.9,1.5-5,1.5c-2.4,0-4.2-0.7-5.6-2.2c-1.4-1.5-2.1-3.5-2.1-6.2c0-2.7,0.7-4.7,2.1-6.2
				s3.3-2.2,5.7-2.2c2,0,3.5,0.4,4.7,1.3C766.2,187.2,767,188.5,767.5,190.2z"/>
			<path class="st7" d="M777.8,185.5v3.4h-2.9v6.5c0,1.3,0,2.1,0.1,2.3c0.1,0.2,0.2,0.4,0.4,0.5c0.2,0.1,0.4,0.2,0.7,0.2
				c0.4,0,1-0.1,1.7-0.4l0.4,3.3c-1,0.4-2.1,0.6-3.4,0.6c-0.8,0-1.5-0.1-2.1-0.4c-0.6-0.3-1.1-0.6-1.4-1c-0.3-0.4-0.5-1-0.6-1.7
				c-0.1-0.5-0.1-1.5-0.1-3v-7h-2v-3.4h2v-3.2l4.3-2.5v5.7H777.8z"/>
			<path class="st7" d="M780.5,183.3v-3.9h4.3v3.9H780.5z M780.5,201.6v-16.1h4.3v16.1H780.5z"/>
			<path class="st7" d="M787.9,193.3c0-1.4,0.3-2.8,1-4.1c0.7-1.3,1.7-2.3,3-3c1.3-0.7,2.7-1,4.3-1c2.4,0,4.4,0.8,6,2.4
				s2.3,3.6,2.3,6c0,2.4-0.8,4.4-2.4,6c-1.6,1.6-3.5,2.4-5.9,2.4c-1.5,0-2.9-0.3-4.2-1c-1.3-0.7-2.4-1.6-3.1-2.9
				C788.3,196.7,787.9,195.1,787.9,193.3z M792.3,193.5c0,1.6,0.4,2.8,1.1,3.7c0.8,0.8,1.7,1.3,2.8,1.3s2-0.4,2.8-1.3
				c0.8-0.8,1.1-2.1,1.1-3.7c0-1.6-0.4-2.8-1.1-3.6c-0.8-0.8-1.7-1.3-2.8-1.3s-2,0.4-2.8,1.3C792.7,190.7,792.3,191.9,792.3,193.5z"
				/>
			<path class="st7" d="M822.2,201.6H818v-8.2c0-1.7-0.1-2.9-0.3-3.4c-0.2-0.5-0.5-0.9-0.9-1.2c-0.4-0.3-0.9-0.4-1.5-0.4
				c-0.7,0-1.4,0.2-2,0.6c-0.6,0.4-1,0.9-1.2,1.6s-0.3,1.9-0.3,3.7v7.3h-4.3v-16.1h4v2.4c1.4-1.8,3.2-2.7,5.3-2.7
				c0.9,0,1.8,0.2,2.6,0.5c0.8,0.3,1.4,0.8,1.8,1.3c0.4,0.5,0.7,1.1,0.8,1.8s0.2,1.6,0.2,2.9V201.6z"/>
			<path class="st7" d="M838.7,201.6h-4.3v-16.1h4v2.3c0.7-1.1,1.3-1.8,1.8-2.1c0.5-0.3,1.2-0.5,1.8-0.5c1,0,1.9,0.3,2.8,0.8
				l-1.3,3.7c-0.7-0.5-1.4-0.7-2-0.7c-0.6,0-1.1,0.2-1.5,0.5s-0.7,0.9-1,1.8s-0.4,2.7-0.4,5.4V201.6z"/>
			<path class="st7" d="M849.6,190.4l-3.9-0.7c0.4-1.6,1.2-2.7,2.2-3.5s2.6-1.1,4.7-1.1c1.9,0,3.3,0.2,4.2,0.7s1.6,1,2,1.7
				c0.4,0.7,0.6,2,0.6,3.8l0,5c0,1.4,0.1,2.5,0.2,3.1c0.1,0.7,0.4,1.4,0.8,2.2h-4.2c-0.1-0.3-0.2-0.7-0.4-1.3
				c-0.1-0.3-0.1-0.4-0.2-0.5c-0.7,0.7-1.5,1.2-2.3,1.6c-0.8,0.4-1.7,0.5-2.6,0.5c-1.7,0-3-0.4-3.9-1.3c-1-0.9-1.4-2-1.4-3.4
				c0-0.9,0.2-1.7,0.7-2.4c0.4-0.7,1-1.3,1.8-1.6c0.8-0.4,1.9-0.7,3.4-1c2-0.4,3.4-0.7,4.1-1v-0.4c0-0.8-0.2-1.4-0.6-1.7
				c-0.4-0.3-1.2-0.5-2.3-0.5c-0.8,0-1.3,0.1-1.8,0.4S849.9,189.6,849.6,190.4z M855.3,193.8c-0.5,0.2-1.4,0.4-2.6,0.7
				c-1.2,0.3-2,0.5-2.3,0.7c-0.6,0.4-0.8,0.9-0.8,1.5c0,0.6,0.2,1.1,0.7,1.5c0.4,0.4,1,0.7,1.7,0.7c0.8,0,1.5-0.3,2.2-0.8
				c0.5-0.4,0.9-0.9,1-1.4c0.1-0.4,0.2-1.1,0.2-2.1V193.8z"/>
			<path class="st7" d="M863.3,185.5h4v2.4c0.5-0.8,1.2-1.5,2.1-2c0.9-0.5,1.9-0.8,2.9-0.8c1.9,0,3.5,0.7,4.8,2.2
				c1.3,1.5,2,3.5,2,6.1c0,2.7-0.7,4.8-2,6.3c-1.3,1.5-2.9,2.2-4.8,2.2c-0.9,0-1.7-0.2-2.4-0.5c-0.7-0.4-1.5-1-2.3-1.8v8.1h-4.3
				V185.5z M867.5,193.2c0,1.8,0.4,3.1,1.1,4c0.7,0.9,1.6,1.3,2.6,1.3c1,0,1.8-0.4,2.5-1.2s1-2.1,1-3.9c0-1.7-0.3-2.9-1-3.8
				c-0.7-0.8-1.5-1.2-2.5-1.2c-1,0-1.9,0.4-2.6,1.2C867.9,190.5,867.5,191.7,867.5,193.2z"/>
			<path class="st7" d="M882.1,183.3v-3.9h4.3v3.9H882.1z M882.1,201.6v-16.1h4.3v16.1H882.1z"/>
			<path class="st7" d="M905.2,201.6h-4v-2.4c-0.7,0.9-1.4,1.6-2.3,2.1c-0.9,0.4-1.8,0.7-2.7,0.7c-1.8,0-3.4-0.7-4.7-2.2
				c-1.3-1.5-2-3.6-2-6.2c0-2.7,0.6-4.8,1.9-6.2c1.3-1.4,2.9-2.1,4.9-2.1c1.8,0,3.4,0.7,4.7,2.2v-8h4.3V201.6z M893.9,193.2
				c0,1.7,0.2,3,0.7,3.7c0.7,1.1,1.6,1.7,2.9,1.7c1,0,1.8-0.4,2.5-1.2c0.7-0.8,1-2.1,1-3.7c0-1.8-0.3-3.2-1-4
				c-0.7-0.8-1.5-1.2-2.6-1.2c-1,0-1.9,0.4-2.5,1.2C894.2,190.4,893.9,191.6,893.9,193.2z"/>
			<path class="st7" d="M918.5,196.4l4.2,0.7c-0.5,1.6-1.4,2.7-2.6,3.5c-1.2,0.8-2.6,1.2-4.4,1.2c-2.8,0-4.9-0.9-6.2-2.7
				c-1.1-1.5-1.6-3.3-1.6-5.5c0-2.7,0.7-4.8,2.1-6.3c1.4-1.5,3.2-2.3,5.3-2.3c2.4,0,4.3,0.8,5.7,2.4s2,4,2,7.3h-10.7
				c0,1.3,0.4,2.2,1,2.9c0.7,0.7,1.5,1.1,2.5,1.1c0.7,0,1.2-0.2,1.7-0.5S918.3,197.2,918.5,196.4z M918.7,192.1c0-1.2-0.3-2.2-1-2.8
				s-1.3-1-2.2-1c-0.9,0-1.7,0.3-2.3,1s-0.9,1.6-0.9,2.8H918.7z"/>
			<path class="st7" d="M925.9,185.5h3.9v2.2c1.4-1.7,3.1-2.6,5-2.6c1,0,1.9,0.2,2.7,0.6c0.8,0.4,1.4,1.1,1.9,1.9
				c0.7-0.9,1.5-1.5,2.3-1.9c0.8-0.4,1.7-0.6,2.6-0.6c1.2,0,2.2,0.2,3,0.7c0.8,0.5,1.4,1.2,1.8,2.1c0.3,0.7,0.4,1.8,0.4,3.3v10.3
				h-4.3v-9.2c0-1.6-0.1-2.6-0.4-3.1c-0.4-0.6-1-0.9-1.8-0.9c-0.6,0-1.2,0.2-1.7,0.5c-0.5,0.4-0.9,0.9-1.1,1.6s-0.3,1.8-0.3,3.3v7.7
				h-4.3v-8.8c0-1.6-0.1-2.6-0.2-3c-0.2-0.5-0.4-0.8-0.7-1c-0.3-0.2-0.7-0.3-1.3-0.3c-0.7,0-1.2,0.2-1.8,0.5s-0.9,0.9-1.1,1.5
				c-0.2,0.7-0.3,1.8-0.3,3.3v7.8h-4.3V185.5z"/>
			<path class="st7" d="M962.8,196.4l4.2,0.7c-0.5,1.6-1.4,2.7-2.6,3.5c-1.2,0.8-2.6,1.2-4.4,1.2c-2.8,0-4.9-0.9-6.2-2.7
				c-1.1-1.5-1.6-3.3-1.6-5.5c0-2.7,0.7-4.8,2.1-6.3c1.4-1.5,3.2-2.3,5.3-2.3c2.4,0,4.3,0.8,5.7,2.4s2,4,2,7.3h-10.7
				c0,1.3,0.4,2.2,1,2.9c0.7,0.7,1.5,1.1,2.5,1.1c0.7,0,1.2-0.2,1.7-0.5S962.6,197.2,962.8,196.4z M963.1,192.1c0-1.2-0.3-2.2-1-2.8
				s-1.3-1-2.2-1c-0.9,0-1.7,0.3-2.3,1s-0.9,1.6-0.9,2.8H963.1z"/>
			<path class="st7" d="M985.1,201.6h-4.3v-8.2c0-1.7-0.1-2.9-0.3-3.4c-0.2-0.5-0.5-0.9-0.9-1.2c-0.4-0.3-0.9-0.4-1.5-0.4
				c-0.7,0-1.4,0.2-2,0.6c-0.6,0.4-1,0.9-1.2,1.6s-0.3,1.9-0.3,3.7v7.3h-4.3v-16.1h4v2.4c1.4-1.8,3.2-2.7,5.3-2.7
				c0.9,0,1.8,0.2,2.6,0.5c0.8,0.3,1.4,0.8,1.8,1.3c0.4,0.5,0.7,1.1,0.8,1.8s0.2,1.6,0.2,2.9V201.6z"/>
			<path class="st7" d="M996.6,185.5v3.4h-2.9v6.5c0,1.3,0,2.1,0.1,2.3c0.1,0.2,0.2,0.4,0.4,0.5c0.2,0.1,0.4,0.2,0.7,0.2
				c0.4,0,1-0.1,1.7-0.4l0.4,3.3c-1,0.4-2.1,0.6-3.4,0.6c-0.8,0-1.5-0.1-2.1-0.4c-0.6-0.3-1.1-0.6-1.4-1c-0.3-0.4-0.5-1-0.6-1.7
				c-0.1-0.5-0.1-1.5-0.1-3v-7h-2v-3.4h2v-3.2l4.3-2.5v5.7H996.6z"/>
		</g>
		<g>
			<g>
				<g>
					<path class="st0" d="M269.2,43.3h60c3,0,5.8,0.6,8.5,1.8c2.6,1.2,5,3.2,7.1,6.1c3.7,5.1,4.5,12.7,2.5,22.9l-0.8,3.7
						c-2.2,9.5-4.9,16.3-8.1,20.6c-2,2.2-4,4.1-6,5.9c-2,1.8-4.6,3.4-7.7,4.9c-0.1,0.1-0.3,0.3-0.5,0.5c-0.2,0.2-0.4,0.5-0.4,0.8
						c0,0.2,0,0.4,0,0.6c1.7,3.2,2.8,6,3.3,8.5c0.5,2.4,0.8,4.9,1.1,7.5l2.6,27.3c0,0.9,0.2,1.6,0.7,2.3c0.4,0.7,0.6,1.2,0.6,1.4
						c-0.1,0.5-0.5,0.8-1.2,0.8h-22.3c-0.6,0-1.2-0.6-1.7-1.7c-0.5-1.1-0.8-2.1-0.8-2.8l-3.5-28.2c-0.1-6-2.4-9.4-6.9-10h-19.7
						c-1.1,0-1.7,0.5-2,1.6l-9,39.5c-0.2,1.1-0.9,1.6-2,1.6h-20.2c-1.1,0-1.5-0.5-1.2-1.6l25.7-112.4
						C267.5,43.8,268.1,43.3,269.2,43.3z M287.8,64.3c-1.1,0-1.7,0.5-2,1.6l-6,26.3c-0.2,1.1,0.2,1.6,1.4,1.6h29.2
						c1.5,0,3.3-0.8,5.5-2.3c1.8-1.3,3.4-3.2,4.8-5.6c1.4-2.5,2.4-5.2,3.1-8.2c0.3-1.5,0.6-2.9,0.7-4.1c0.1-1.2,0-2.4-0.3-3.5
						c-0.9-3.5-2.5-5.5-4.8-5.8H287.8z"/>
					<path class="st0" d="M363.9,127.1c-0.4,1.6-0.3,3.1,0.3,4.4c0.5,1.3,1.4,2.5,2.6,3.5c1.2,1,2.8,1.8,4.7,2.4
						c1.9,0.6,4,0.9,6.2,0.9h38.2c1.1,0,1.5,0.5,1.2,1.6l-3.7,16.4c-0.2,1.1-0.9,1.6-2,1.6h-27.1c-9,0-16.3-0.7-22-2.2
						c-5.7-1.5-10-3.9-13-7.1c-2.9-3.3-4.6-7.4-5-12.4c-0.4-5,0.2-11.1,1.8-18.1c2-8.6,4.9-15.6,8.8-21.3
						c3.9-5.6,8.3-10.1,13.3-13.4c5-3.3,10.3-5.6,15.9-7c5.6-1.3,11.1-2,16.4-2c6.6,0,12.2,0.8,16.6,2.3c4.5,1.6,7.9,3.7,10.4,6.6
						c2.5,2.8,3.9,6.3,4.5,10.4c0.5,4.1,0.2,8.6-1,13.6l-3.8,16.7c-0.2,1.1-0.9,1.6-2,1.6h-59.4C364.8,125.5,364.1,126,363.9,127.1z
						 M411.4,106.7c1.1,0,1.7-0.5,2-1.6c0.9-4.1-0.2-7.3-3.4-9.7c-3.2-2.4-8.2-3.6-14.9-3.6c-2.1,0-4.6,0.3-7.4,1
						c-2.8,0.6-5.5,1.5-8.1,2.6c-2.7,1.1-5,2.5-7,4.2c-2,1.7-3.2,3.5-3.7,5.5c-0.2,1.1,0.2,1.6,1.2,1.6H411.4z"/>
					<path class="st0" d="M455.4,74.1h45.5c4.1,0,7.4,0.9,9.8,2.7c2.4,1.8,4.2,4.1,5.4,6.9c1.1,2.8,1.7,5.9,1.7,9.4
						c0,3.4-0.4,6.9-1.2,10.3l-12.2,53.3c-0.2,1.1-0.9,1.6-2,1.6h-56.3c-3.2,0-5.6-1-7.2-3c-1.6-2-2.6-4.3-3.2-7
						c-0.5-2.7-0.7-5.4-0.5-8.1c0.2-2.7,0.4-4.7,0.8-6.1c0.6-2.6,1.6-5.4,2.9-8.6c1.4-3.1,3-6,5-8.6c2-2.6,4.3-4.9,7-6.7
						c2.7-1.8,5.6-2.7,8.9-2.7h27c2.8,0,5.2-0.7,7.2-2c2-1.3,3.2-2.9,3.6-4.8c0.3-1.5,0.1-3-0.6-4.5c-0.7-1.5-2-2.3-3.7-2.3h-42.5
						c-1.1,0-1.5-0.5-1.2-1.6l3.8-16.5C453.6,74.6,454.3,74.1,455.4,74.1z M487.1,139.3c1.1,0,1.7-0.5,2-1.6l2.2-9.7
						c0.2-1.1-0.2-1.6-1.2-1.6h-28.7c-1.5,0-2.9,0.6-4.1,1.9c-1.3,1.2-2.1,2.6-2.4,4.1c-0.4,1.8-0.3,3.4,0.5,4.8
						c0.8,1.4,2.1,2.1,4,2.1H487.1z"/>
					<path class="st0" d="M544.9,44.1h16.2c1.1,0,1.5,0.5,1.2,1.6L539.1,140l-0.1,0.3l-4,16.2c-0.3,1.1-0.9,1.6-2,1.6h-16.2
						c-1.1,0-1.5-0.5-1.2-1.6l4-16.2l0.1-0.3L543,45.7C543.2,44.6,543.9,44.1,544.9,44.1z"/>
				</g>
				<g>
					<g>
						<path class="st7" d="M272.3,41.3h60c3,0,5.8,0.6,8.5,1.8c2.6,1.2,5,3.2,7.1,6.1c3.7,5.1,4.5,12.7,2.5,22.9l-0.8,3.7
							c-2.2,9.5-4.9,16.3-8.1,20.6c-2,2.2-4,4.1-6,5.9c-2,1.8-4.6,3.4-7.7,4.9c-0.1,0.1-0.3,0.3-0.5,0.5c-0.2,0.2-0.4,0.5-0.4,0.8
							c0,0.2,0,0.4,0,0.6c1.7,3.2,2.8,6,3.3,8.5c0.5,2.4,0.8,4.9,1.1,7.5l2.6,27.3c0,0.9,0.2,1.6,0.7,2.3c0.4,0.7,0.6,1.2,0.6,1.4
							c-0.1,0.5-0.5,0.8-1.2,0.8h-22.3c-0.6,0-1.2-0.6-1.7-1.7c-0.5-1.1-0.8-2.1-0.8-2.8l-3.5-28.2c-0.1-6-2.4-9.4-6.9-10H279
							c-1.1,0-1.7,0.5-2,1.6l-9,39.5c-0.2,1.1-0.9,1.6-2,1.6h-20.2c-1.1,0-1.5-0.5-1.2-1.6l25.7-112.4
							C270.6,41.8,271.2,41.3,272.3,41.3z M290.9,62.3c-1.1,0-1.7,0.5-2,1.6l-6,26.3c-0.2,1.1,0.2,1.6,1.4,1.6h29.2
							c1.5,0,3.3-0.8,5.5-2.3c1.8-1.3,3.4-3.2,4.8-5.6c1.4-2.5,2.4-5.2,3.1-8.2c0.3-1.5,0.6-2.9,0.7-4.1c0.1-1.2,0-2.4-0.3-3.5
							c-0.9-3.5-2.5-5.5-4.8-5.8H290.9z"/>
						<path class="st7" d="M367,125.1c-0.4,1.6-0.3,3.1,0.3,4.4c0.5,1.3,1.4,2.5,2.6,3.5c1.2,1,2.8,1.8,4.7,2.4
							c1.9,0.6,4,0.9,6.2,0.9H419c1.1,0,1.5,0.5,1.2,1.6l-3.7,16.4c-0.2,1.1-0.9,1.6-2,1.6h-27.1c-9,0-16.3-0.7-22-2.2
							c-5.7-1.5-10-3.9-13-7.1c-2.9-3.3-4.6-7.4-5-12.4c-0.4-5,0.2-11.1,1.8-18.1c2-8.6,4.9-15.6,8.8-21.3
							c3.9-5.6,8.3-10.1,13.3-13.4c5-3.3,10.3-5.6,15.9-7c5.6-1.3,11.1-2,16.4-2c6.6,0,12.2,0.8,16.6,2.3c4.5,1.6,7.9,3.7,10.4,6.6
							c2.5,2.8,3.9,6.3,4.5,10.4c0.5,4.1,0.2,8.6-1,13.6l-3.8,16.7c-0.2,1.1-0.9,1.6-2,1.6H369C367.9,123.5,367.3,124,367,125.1z
							 M414.5,104.7c1.1,0,1.7-0.5,2-1.6c0.9-4.1-0.2-7.3-3.4-9.7c-3.2-2.4-8.2-3.6-14.9-3.6c-2.1,0-4.6,0.3-7.4,1
							c-2.8,0.6-5.5,1.5-8.1,2.6c-2.7,1.1-5,2.5-7,4.2c-2,1.7-3.2,3.5-3.7,5.5c-0.2,1.1,0.2,1.6,1.2,1.6H414.5z"/>
						<path class="st7" d="M458.5,72.1H504c4.1,0,7.4,0.9,9.8,2.7c2.4,1.8,4.2,4.1,5.4,6.9c1.1,2.8,1.7,5.9,1.7,9.4
							c0,3.4-0.4,6.9-1.2,10.3l-12.2,53.3c-0.2,1.1-0.9,1.6-2,1.6h-56.3c-3.2,0-5.6-1-7.2-3c-1.6-2-2.6-4.3-3.2-7
							c-0.5-2.7-0.7-5.4-0.5-8.1c0.2-2.7,0.4-4.7,0.8-6.1c0.6-2.6,1.6-5.4,2.9-8.6c1.4-3.1,3-6,5-8.6c2-2.6,4.3-4.9,7-6.7
							c2.7-1.8,5.6-2.7,8.9-2.7h27c2.8,0,5.2-0.7,7.2-2c2-1.3,3.2-2.9,3.6-4.8c0.3-1.5,0.1-3-0.6-4.5c-0.7-1.5-2-2.3-3.7-2.3H454
							c-1.1,0-1.5-0.5-1.2-1.6l3.8-16.5C456.8,72.6,457.4,72.1,458.5,72.1z M490.2,137.3c1.1,0,1.7-0.5,2-1.6l2.2-9.7
							c0.2-1.1-0.2-1.6-1.2-1.6h-28.7c-1.5,0-2.9,0.6-4.1,1.9c-1.3,1.2-2.1,2.6-2.4,4.1c-0.4,1.8-0.3,3.4,0.5,4.8
							c0.8,1.4,2.1,2.1,4,2.1H490.2z"/>
						<path class="st7" d="M548.1,42.1h16.2c1.1,0,1.5,0.5,1.2,1.6L542.2,138l-0.1,0.3l-4,16.2c-0.3,1.1-0.9,1.6-2,1.6h-16.2
							c-1.1,0-1.5-0.5-1.2-1.6l4-16.2l0.1-0.3l23.3-94.3C546.4,42.6,547,42.1,548.1,42.1z"/>
					</g>
				</g>
			</g>
			<g>
				<g>
					<g>
						<path class="st8" d="M594.6,158.7c-0.3,1.1-1,1.6-2,1.6h-20c-1.1,0-1.5-0.5-1.2-1.6l24-90.9c0.3-1.1-0.1-1.6-1.2-1.6h-26.1
							c-1.1,0-1.5-0.5-1.2-1.6l4.7-17.6c0.3-1.1,1-1.6,2-1.6h78.7c1.1,0,1.5,0.5,1.2,1.6l-4.7,17.6c-0.3,1.1-1,1.6-2,1.6h-26.1
							c-1.1,0-1.7,0.5-2,1.6L594.6,158.7z"/>
						<path class="st8" d="M665.1,45.4h16.3c1.1,0,1.5,0.5,1.2,1.6l-4.3,16.4c-0.3,1.1-1,1.6-2,1.6h-16.3c-1.1,0-1.5-0.5-1.2-1.6
							l4.3-16.4C663.3,45.9,664,45.4,665.1,45.4z M654.8,78.4c0.3-1.1,1-1.6,2-1.6h16.3c1.1,0,1.5,0.5,1.2,1.6l-21.2,80.3
							c-0.3,1.1-1,1.6-2,1.6h-16.3c-1.1,0-1.5-0.5-1.2-1.6L654.8,78.4z"/>
						<path class="st8" d="M690.7,63.7c0.9-3.5,2.3-6.5,4.2-8.8c1.9-2.3,4.1-4.2,6.6-5.6c2.5-1.4,5.2-2.4,8.1-3
							c2.9-0.6,5.8-0.9,8.6-0.9c4.6,0,8.3,0.3,11,0.8c2.7,0.5,4.8,1.7,6.2,3.6c1.4,1.9,2.1,4.7,2.2,8.4c0.1,3.7-0.2,8.8-0.8,15.2
							l-5.3,53.1c0,0.4-0.1,1.1-0.1,2.1c-0.1,1-0.1,1.9-0.1,2.9c0,1,0.1,1.8,0.1,2.6c0.1,0.7,0.2,1.1,0.4,1.1c0.2,0,0.6-0.4,1.1-1.1
							c0.5-0.7,1-1.6,1.5-2.6c0.5-1,0.9-1.9,1.4-2.8c0.5-0.9,0.7-1.5,0.8-1.7l22.6-54.2c2.6-6.2,4.9-11.1,7-14.8s4.3-6.4,6.7-8.3
							c2.3-1.8,5.1-3,8.2-3.5c3.1-0.5,7-0.8,11.8-0.8c6.7,0,11.9,1.3,15.5,4c3.6,2.7,4.5,7.3,2.8,13.8l-25.2,95.5
							c-0.3,1.1-1,1.6-2,1.6h-20c-1.1,0-1.5-0.5-1.2-1.6l23-87.4c0.1-0.2,0.1-0.7,0.2-1.4c0.1-0.7-0.2-1-0.7-1c-0.5,0-1,0.2-1.4,0.6
							c-0.4,0.4-0.7,0.8-1,1.2c-0.2,0.2-0.4,0.7-0.8,1.4c-0.4,0.7-0.7,1.6-1.1,2.4c-0.4,0.9-0.8,1.7-1.2,2.6
							c-0.4,0.9-0.7,1.5-0.9,1.9c-1.3,2.7-2.7,5.5-4.1,8.4c-1.4,2.9-3.2,6.8-5.6,11.7c-2.4,4.9-5.3,11.1-8.8,18.6
							c-3.5,7.5-8.1,17.2-13.8,28.9c-0.8,1.7-1.7,3.4-2.9,5c-1.2,1.6-2.6,3-4.3,4.3c-1.7,1.3-3.7,2.3-6.2,3.1
							c-2.5,0.8-5.4,1.2-8.8,1.2c-3.1,0-5.5-0.4-7.3-1.1c-1.8-0.7-3.2-1.7-4.1-2.8c-1-1.1-1.6-2.4-1.9-3.8c-0.3-1.4-0.4-2.7-0.4-4
							l4.1-76.3c-0.1-0.2-0.1-0.8-0.1-1.8c0-1-0.2-1.6-0.6-1.7h-0.8c-0.4,0-0.7,0.4-0.9,1.1l-23.4,88.8c-0.3,1.1-1,1.6-2,1.6h-20
							c-1.1,0-1.5-0.5-1.2-1.6L690.7,63.7z"/>
						<path class="st8" d="M821.2,69.9c1.9-7.3,5.4-13.2,10.6-17.7c5.1-4.5,11.5-6.8,18.9-6.8h54.3c1.4,0,1.9,0.5,1.7,1.6l-4.7,17.6
							c-0.3,1.1-1,1.6-2,1.6h-53.1c-1.1,0-1.8,0.6-2.1,1.8l-5.8,21.8c-0.3,1.1,0.1,1.6,1.2,1.6h49.2c1.1,0,1.5,0.5,1.2,1.6
							l-4.9,18.4c-0.3,1.1-1,1.6-2,1.6h-49.2c-1.1,0-1.7,0.5-2,1.6l-6.1,23.2c-0.3,1.1,0.1,1.6,1.2,1.6h53.1c1.1,0,1.5,0.5,1.2,1.6
							l-4.7,17.6c-0.3,1.1-1,1.6-2,1.6h-62c-1.9,0-3.7-0.5-5.4-1.5c-1.7-1-3-2.3-4.1-3.9c-1.1-1.6-1.8-3.4-2.2-5.4
							c-0.4-2-0.3-4,0.2-6L821.2,69.9z"/>
						<path class="st8" d="M931.6,112.5c-3.3,0-6.8-0.4-10.3-1.3c-3.6-0.9-6.6-2.5-9-5c-1.4-1.5-2.5-3.3-3.2-5.4
							c-0.7-2.1-1.1-4.3-1.3-6.7c-0.2-2.4-0.1-4.9,0.2-7.4c0.3-2.5,0.8-5,1.4-7.5c0.3-1.1,0.5-2.1,0.8-3c0.3-1,0.6-1.9,1.1-2.9
							c3.2-9.3,8.6-16.5,16.1-21.6c2.2-1.5,4.8-2.9,7.9-4.3c3-1.4,5.8-2.1,8.4-2.1h53.1c1.1,0,1.5,0.5,1.2,1.6l-4.7,17.6
							c-0.3,1.1-1,1.6-2,1.6H945c-1.5,0-3,0.7-4.6,2c-1.6,1.3-2.8,2.6-3.6,3.8c-0.8,1.1-1.4,2.1-1.8,3.2c-0.4,1.1-0.7,2.1-1,3.2
							c-0.5,1.7-0.8,3.5-1.1,5.3c-0.3,1.8,0.1,3.4,1,4.8c0.9,1.2,2.3,1.9,4.3,2.1c2,0.2,4.3,0.3,6.7,0.3h18c3.3,0,6.7,0.5,10.1,1.4
							c3.4,0.9,6.3,2.6,8.7,5.2c1.4,1.5,2.5,3.3,3.1,5.4c0.7,2.1,1.1,4.4,1.2,6.9c0.2,2.5,0,5-0.3,7.7c-0.4,2.7-0.9,5.2-1.5,7.7
							c-0.3,1.2-0.6,2.3-0.9,3.4c-0.3,1-0.6,1.9-1,2.7c-3.4,9.7-8.8,17.2-16.2,22.4c-2.2,1.5-4.8,3-7.8,4.4c-3,1.4-5.7,2.2-8,2.2
							h-58.3c-1.1,0-1.5-0.5-1.2-1.6l4.7-17.6c0.3-1.1,1-1.6,2-1.6h51.6c1.6,0,3.2-0.8,4.8-2.3c1.6-1.5,2.8-3,3.7-4.2
							c0.8-1.2,1.5-2.3,1.9-3.4c0.4-1.1,0.7-2.2,1-3.4c0.5-1.7,0.8-3.5,1.1-5.4c0.3-1.9,0-3.6-0.9-5c-0.8-1.2-2.1-2-3.9-2.5
							c-1.9-0.5-4.1-0.7-6.8-0.7H931.6z"/>
					</g>
				</g>
				<g>
					<g>
						<path class="st7" d="M599,155c-0.3,1.1-1,1.6-2,1.6h-20c-1.1,0-1.5-0.5-1.2-1.6l24-90.9c0.3-1.1-0.1-1.6-1.2-1.6h-26.1
							c-1.1,0-1.5-0.5-1.2-1.6l4.7-17.6c0.3-1.1,1-1.6,2-1.6h78.7c1.1,0,1.5,0.5,1.2,1.6l-4.7,17.6c-0.3,1.1-1,1.6-2,1.6H625
							c-1.1,0-1.7,0.5-2,1.6L599,155z"/>
						<path class="st7" d="M669.4,41.7h16.3c1.1,0,1.5,0.5,1.2,1.6l-4.3,16.4c-0.3,1.1-1,1.6-2,1.6h-16.3c-1.1,0-1.5-0.5-1.2-1.6
							l4.3-16.4C667.7,42.2,668.4,41.7,669.4,41.7z M659.1,74.7c0.3-1.1,1-1.6,2-1.6h16.3c1.1,0,1.5,0.5,1.2,1.6L657.5,155
							c-0.3,1.1-1,1.6-2,1.6h-16.3c-1.1,0-1.5-0.5-1.2-1.6L659.1,74.7z"/>
						<path class="st7" d="M695,59.9c0.9-3.5,2.3-6.5,4.2-8.8c1.9-2.3,4.1-4.2,6.6-5.6c2.5-1.4,5.2-2.4,8.1-3
							c2.9-0.6,5.8-0.9,8.6-0.9c4.6,0,8.3,0.3,11,0.8c2.7,0.5,4.8,1.7,6.2,3.6c1.4,1.9,2.1,4.7,2.2,8.4c0.1,3.7-0.2,8.8-0.8,15.2
							l-5.3,53.1c0,0.4-0.1,1.1-0.1,2.1c-0.1,1-0.1,1.9-0.1,2.9c0,1,0.1,1.8,0.1,2.6c0.1,0.7,0.2,1.1,0.4,1.1c0.2,0,0.6-0.4,1.1-1.1
							c0.5-0.7,1-1.6,1.5-2.6c0.5-1,0.9-1.9,1.4-2.8c0.5-0.9,0.7-1.5,0.8-1.7l22.6-54.2c2.6-6.2,4.9-11.1,7-14.8s4.3-6.4,6.7-8.3
							c2.3-1.8,5.1-3,8.2-3.5c3.1-0.5,7-0.8,11.8-0.8c6.7,0,11.9,1.3,15.5,4c3.6,2.7,4.5,7.3,2.8,13.8L790.2,155
							c-0.3,1.1-1,1.6-2,1.6h-20c-1.1,0-1.5-0.5-1.2-1.6l23-87.4c0.1-0.2,0.1-0.7,0.2-1.4c0.1-0.7-0.2-1-0.7-1c-0.5,0-1,0.2-1.4,0.6
							c-0.4,0.4-0.7,0.8-1,1.2c-0.2,0.2-0.4,0.7-0.8,1.4c-0.4,0.7-0.7,1.6-1.1,2.4c-0.4,0.9-0.8,1.7-1.2,2.6
							c-0.4,0.9-0.7,1.5-0.9,1.9c-1.3,2.7-2.7,5.5-4.1,8.4c-1.4,2.9-3.2,6.8-5.6,11.7c-2.4,4.9-5.3,11.1-8.8,18.6
							c-3.5,7.5-8.1,17.2-13.8,28.9c-0.8,1.7-1.7,3.4-2.9,5c-1.2,1.6-2.6,3-4.3,4.3c-1.7,1.3-3.7,2.3-6.2,3.1
							c-2.5,0.8-5.4,1.2-8.8,1.2c-3.1,0-5.5-0.4-7.3-1.1c-1.8-0.7-3.2-1.7-4.1-2.8c-1-1.1-1.6-2.4-1.9-3.8c-0.3-1.4-0.4-2.7-0.4-4
							l4.1-76.3c-0.1-0.2-0.1-0.8-0.1-1.8c0-1-0.2-1.6-0.6-1.7h-0.8c-0.4,0-0.7,0.4-0.9,1.1L693.2,155c-0.3,1.1-1,1.6-2,1.6h-20
							c-1.1,0-1.5-0.5-1.2-1.6L695,59.9z"/>
						<path class="st7" d="M825.6,66.2c1.9-7.3,5.4-13.2,10.6-17.7c5.1-4.5,11.5-6.8,18.9-6.8h54.3c1.4,0,1.9,0.5,1.7,1.6l-4.7,17.6
							c-0.3,1.1-1,1.6-2,1.6h-53.1c-1.1,0-1.8,0.6-2.1,1.8l-5.8,21.8c-0.3,1.1,0.1,1.6,1.2,1.6H894c1.1,0,1.5,0.5,1.2,1.6l-4.9,18.4
							c-0.3,1.1-1,1.6-2,1.6H839c-1.1,0-1.7,0.5-2,1.6l-6.1,23.2c-0.3,1.1,0.1,1.6,1.2,1.6h53.1c1.1,0,1.5,0.5,1.2,1.6l-4.7,17.6
							c-0.3,1.1-1,1.6-2,1.6h-62c-1.9,0-3.7-0.5-5.4-1.5c-1.7-1-3-2.3-4.1-3.9c-1.1-1.6-1.8-3.4-2.2-5.4c-0.4-2-0.3-4,0.2-6
							L825.6,66.2z"/>
						<path class="st7" d="M936,108.8c-3.3,0-6.8-0.4-10.3-1.3c-3.6-0.9-6.6-2.5-9-5c-1.4-1.5-2.5-3.3-3.2-5.4
							c-0.7-2.1-1.1-4.3-1.3-6.7c-0.2-2.4-0.1-4.9,0.2-7.4c0.3-2.5,0.8-5,1.4-7.5c0.3-1.1,0.5-2.1,0.8-3c0.3-1,0.6-1.9,1.1-2.9
							c3.2-9.3,8.6-16.5,16.1-21.6c2.2-1.5,4.8-2.9,7.9-4.3c3-1.4,5.8-2.1,8.4-2.1h53.1c1.1,0,1.5,0.5,1.2,1.6l-4.7,17.6
							c-0.3,1.1-1,1.6-2,1.6h-46.3c-1.5,0-3,0.7-4.6,2c-1.6,1.3-2.8,2.6-3.6,3.8c-0.8,1.1-1.4,2.1-1.8,3.2c-0.4,1.1-0.7,2.1-1,3.2
							c-0.5,1.7-0.8,3.5-1.1,5.3c-0.3,1.8,0.1,3.4,1,4.8c0.9,1.2,2.3,1.9,4.3,2.1c2,0.2,4.3,0.3,6.7,0.3h18c3.3,0,6.7,0.5,10.1,1.4
							c3.4,0.9,6.3,2.6,8.7,5.2c1.4,1.5,2.5,3.3,3.1,5.4c0.7,2.1,1.1,4.4,1.2,6.9c0.2,2.5,0,5-0.3,7.7c-0.4,2.7-0.9,5.2-1.5,7.7
							c-0.3,1.2-0.6,2.3-0.9,3.4c-0.3,1-0.6,1.9-1,2.7c-3.4,9.7-8.8,17.2-16.2,22.4c-2.2,1.5-4.8,3-7.8,4.4c-3,1.4-5.7,2.2-8,2.2
							h-58.3c-1.1,0-1.5-0.5-1.2-1.6l4.7-17.6c0.3-1.1,1-1.6,2-1.6h51.6c1.6,0,3.2-0.8,4.8-2.3c1.6-1.5,2.8-3,3.7-4.2
							c0.8-1.2,1.5-2.3,1.9-3.4c0.4-1.1,0.7-2.2,1-3.4c0.5-1.7,0.8-3.5,1.1-5.4c0.3-1.9,0-3.6-0.9-5c-0.8-1.2-2.1-2-3.9-2.5
							c-1.9-0.5-4.1-0.7-6.8-0.7H936z"/>
					</g>
				</g>
			</g>
		</g>
	</g>
</g>
</svg>
