<?xml version="1.0" encoding="utf-8"?>
<!-- Generator: Adobe Illustrator 27.0.1, SVG Export Plug-In . SVG Version: 6.00 Build 0)  -->
<svg version="1.1" id="Calque_1" xmlns="http://www.w3.org/2000/svg" xmlns:xlink="http://www.w3.org/1999/xlink" x="0px" y="0px"
	 viewBox="0 0 34 34" style="enable-background:new 0 0 34 34;" xml:space="preserve">
<style type="text/css">
	.st0{fill:#6FC400;}
</style>
<path class="st0" d="M28.2,6.3h-23c-0.6,0-1.1,0.2-1.5,0.6S3.1,7.8,3.1,8.4v20.7c0,0.4,0.1,0.8,0.3,1.1C3.7,30.6,4,30.8,4.3,31
	c0.3,0.1,0.6,0.2,0.9,0.2c0.5,0,1-0.2,1.3-0.5l4.2-3.5l17.5-0.1c0.6,0,1.1-0.2,1.5-0.6c0.4-0.4,0.6-0.9,0.6-1.5V8.4
	c0-0.6-0.2-1.1-0.6-1.5C29.3,6.5,28.8,6.3,28.2,6.3z"/>
</svg>
