<?xml version="1.0" encoding="utf-8"?>
<!-- Generator: Adobe Illustrator 27.0.1, SVG Export Plug-In . SVG Version: 6.00 Build 0)  -->
<svg version="1.1" id="Calque_1" xmlns="http://www.w3.org/2000/svg" xmlns:xlink="http://www.w3.org/1999/xlink" x="0px" y="0px"
	 viewBox="0 0 512 512" style="enable-background:new 0 0 512 512;" xml:space="preserve">
<style type="text/css">
	.st0{fill:#FCFBF7;}
	.st1{fill:url(#SVGID_1_);}
	.st2{fill:url(#SVGID_00000029729037984882815610000017374569246459009925_);}
</style>
<g id="Layer_2">
	<path class="st0" d="M425.8,11.5c-113.1-8-226.5-8-339.6,0c-40,3-71.7,34.8-74.7,74.7c-8,113.1-8,226.5,0,339.6
		c3,40,34.8,71.7,74.7,74.7c113.1,8,226.5,8,339.6,0c40-3,71.7-34.8,74.7-74.7c8-113.1,8-226.5,0-339.6
		C497.5,46.2,465.8,14.5,425.8,11.5z"/>
</g>
<g id="Layer_1">
	
		<linearGradient id="SVGID_1_" gradientUnits="userSpaceOnUse" x1="136.0062" y1="386.362" x2="136.0062" y2="366.68" gradientTransform="matrix(16 0 0 -16 -1920 6272)">
		<stop  offset="0" style="stop-color:#1D1D1B"/>
		<stop  offset="1" style="stop-color:#6FC400"/>
	</linearGradient>
	<path class="st1" d="M187.3,203.3l52.7-52.7V336c0,8.8,7.2,16,16,16c8.8,0,16-7.2,16-16V150.6l52.7,52.7c6.3,6.1,16.3,6.1,22.6,0
		c6.2-6.2,6.3-16.4,0-22.6c0,0,0,0,0,0l-80-80c-6.3-6.1-16.3-6.1-22.7,0l-80,80c-6.1,6.4-6,16.5,0.4,22.6
		C171.3,209.3,181.1,209.3,187.3,203.3L187.3,203.3z"/>
	
		<linearGradient id="SVGID_00000161624040593590202750000005022089380642849161_" gradientUnits="userSpaceOnUse" x1="-18.896" y1="367" x2="138.56" y2="367" gradientTransform="matrix(16 0 0 -16 -1920 6272)">
		<stop  offset="0" style="stop-color:#1D1D1B"/>
		<stop  offset="0.1242" style="stop-color:#20231A"/>
		<stop  offset="0.2856" style="stop-color:#283317"/>
		<stop  offset="0.4675" style="stop-color:#354E13"/>
		<stop  offset="0.6644" style="stop-color:#47730D"/>
		<stop  offset="0.8711" style="stop-color:#5FA305"/>
		<stop  offset="1" style="stop-color:#6FC400"/>
	</linearGradient>
	<path style="fill:url(#SVGID_00000161624040593590202750000005022089380642849161_);" d="M368,384H144c-8.8,0-16,7.2-16,16
		s7.2,16,16,16h224c8.8,0,16-7.2,16-16S376.8,384,368,384z"/>
</g>
</svg>
